<?xml version="1.0" standalone="no"?>
<!DOCTYPE svg PUBLIC "-//W3C//DTD SVG 20010904//EN"
 "http://www.w3.org/TR/2001/REC-SVG-20010904/DTD/svg10.dtd">
<svg version="1.0" xmlns="http://www.w3.org/2000/svg"
 width="298.000000pt" height="298.000000pt" viewBox="0 0 298.000000 298.000000"
 preserveAspectRatio="xMidYMid meet">
<metadata>
Created by potrace 1.14, written by Peter Selinger 2001-2017
</metadata>
<g transform="translate(0.000000,298.000000) scale(0.100000,-0.100000)"
fill="#000000" stroke="none">
<path d="M1370 2578 c-63 -111 -116 -206 -118 -212 -2 -8 69 -10 230 -9 128 1
238 2 245 2 11 1 -223 421 -236 421 -3 0 -58 -91 -121 -202z"/>
<path d="M1250 2279 c0 -3 44 -82 98 -175 53 -93 106 -186 117 -207 11 -20 22
-37 25 -37 5 0 59 88 103 170 11 19 36 64 57 100 21 36 49 85 63 110 l25 45
-244 0 c-134 0 -244 -3 -244 -6z"/>
<path d="M1140 2177 c-19 -34 -50 -89 -68 -122 -19 -33 -56 -98 -83 -143 -27
-46 -47 -87 -45 -90 5 -9 476 -7 477 2 0 11 -233 416 -240 416 -3 0 -22 -28
-41 -63z"/>
<path d="M1682 2043 c-61 -108 -113 -203 -115 -211 -2 -13 33 -15 236 -16 130
-1 237 3 237 8 0 12 -231 416 -239 416 -3 0 -57 -89 -119 -197z"/>
<path d="M957 1742 c-10 -2 -17 -7 -15 -10 13 -30 222 -390 232 -400 10 -11
35 25 129 191 65 113 117 209 117 213 0 8 -424 13 -463 6z"/>
<path d="M1569 1739 c-9 -5 6 -34 125 -239 14 -25 42 -75 63 -112 20 -38 40
-68 43 -68 4 0 26 35 50 78 25 42 79 137 122 210 42 72 76 133 75 133 -8 5
-470 3 -478 -2z"/>
<path d="M750 1497 c-63 -111 -115 -206 -115 -212 0 -6 88 -10 242 -10 238 0
241 0 231 20 -40 76 -232 405 -237 405 -3 0 -58 -92 -121 -203z"/>
<path d="M2059 1617 c-26 -45 -79 -138 -118 -206 -40 -68 -69 -126 -66 -130 4
-3 114 -6 245 -6 l239 0 -17 30 c-10 17 -65 112 -122 213 -57 100 -106 182
-109 182 -3 0 -27 -37 -52 -83z"/>
<path d="M635 1190 c12 -30 230 -409 236 -410 5 0 233 388 247 419 1 3 -108 6
-243 6 -214 0 -244 -2 -240 -15z"/>
<path d="M1870 1199 c0 -4 33 -65 74 -136 40 -70 84 -148 98 -173 50 -89 63
-110 69 -110 7 0 239 404 239 417 0 4 -108 8 -240 8 -132 0 -240 -3 -240 -6z"/>
<path d="M553 1148 c-12 -16 -233 -404 -233 -410 0 -2 110 -4 245 -4 135 0
245 2 245 5 0 4 -9 17 -20 31 -11 14 -20 28 -20 31 0 4 -30 58 -66 120 -36 63
-79 139 -96 169 -38 69 -43 74 -55 58z"/>
<path d="M2300 958 c-63 -112 -115 -207 -115 -213 0 -6 85 -10 242 -11 l243 0
-18 30 c-10 17 -65 113 -122 214 -57 100 -107 182 -110 182 -3 0 -57 -91 -120
-202z"/>
<path d="M329 659 c-9 -5 220 -418 233 -419 9 0 249 420 240 421 -35 4 -466 3
-473 -2z"/>
<path d="M1564 658 c-3 -5 86 -169 151 -278 8 -14 30 -51 47 -82 18 -32 36
-58 39 -58 6 0 70 106 121 200 10 19 27 49 37 65 48 81 82 147 77 152 -8 9
-467 9 -472 1z"/>
<path d="M2180 657 c0 -12 234 -417 241 -417 4 0 44 66 90 148 46 81 100 175
121 210 37 60 37 62 15 63 -131 5 -467 2 -467 -4z"/>
<path d="M226 580 c-14 -22 -26 -42 -26 -44 0 -2 -23 -44 -51 -93 -29 -48 -65
-113 -82 -143 -17 -30 -36 -64 -44 -75 -7 -11 -13 -22 -13 -25 0 -3 110 -6
245 -6 l245 -1 -23 41 c-13 23 -68 119 -121 214 -54 94 -99 172 -101 172 -1 0
-14 -18 -29 -40z"/>
<path d="M1483 608 c-14 -18 -221 -380 -228 -399 -5 -13 21 -15 235 -15 132 0
240 3 240 7 0 3 -26 53 -58 110 -137 242 -175 309 -177 309 -1 0 -7 -6 -12
-12z"/>
<path d="M2097 598 c-30 -46 -227 -392 -227 -398 0 -3 108 -6 240 -6 132 0
240 4 240 8 0 7 -226 407 -235 416 -2 2 -10 -7 -18 -20z"/>
<path d="M2610 418 c-63 -110 -116 -206 -118 -213 -2 -8 62 -11 238 -11 173 0
240 3 238 11 -5 18 -232 415 -238 415 -3 0 -57 -91 -120 -202z"/>
</g>
</svg>
